<svg width="135" height="30" viewBox="0 0 135 30" fill="none" xmlns="http://www.w3.org/2000/svg">
<g clip-path="url(#clip0_1642:1539)" filter="url(#filter0_d_1642:1539)">
<path fill-rule="evenodd" clip-rule="evenodd" d="M18.8018 0.0867008C21.9453 0.0121626 25.0333 0.922382 27.6339 2.68995C30.2344 4.45751 32.2172 6.99395 33.305 9.94427C34.3927 12.8946 34.5309 16.1112 33.7002 19.144C33.3326 20.4861 31.9466 21.2761 30.6045 20.9085C29.2623 20.5409 28.4723 19.1548 28.8399 17.8127C29.393 15.7935 29.301 13.6518 28.5768 11.6875C27.8525 9.72315 26.5324 8.03446 24.8011 6.85771C23.0698 5.68095 21.0139 5.075 18.9213 5.12462C16.8286 5.17424 14.8038 5.87695 13.1302 7.13445C11.4566 8.39195 10.218 10.1413 9.58765 12.1378C8.95734 14.1342 8.96692 16.2778 9.61506 18.2686C10.2632 20.2593 11.5174 21.9976 13.2022 23.24C14.887 24.4825 16.918 25.1671 19.011 25.198C20.4024 25.2186 21.5137 26.3632 21.4932 27.7546C21.4726 29.1461 20.328 30.2574 18.9366 30.2368C15.7926 30.1904 12.7418 29.162 10.2112 27.2958C7.68059 25.4295 5.79675 22.8187 4.82329 19.8287C3.84982 16.8387 3.83543 13.6192 4.78212 10.6206C5.72882 7.62203 7.58924 4.99447 10.1031 3.10564L11.6167 5.12004L10.1031 3.10564C12.6169 1.2168 15.6584 0.161239 18.8018 0.0867008Z" fill="#121920"/>
<path d="M30.4992 24.9706C30.4992 27.0804 28.7888 28.7908 26.6789 28.7908C24.5691 28.7908 22.8587 27.0804 22.8587 24.9706C22.8587 22.8608 24.5691 21.1504 26.6789 21.1504C28.7888 21.1504 30.4992 22.8608 30.4992 24.9706Z" fill="#F95A59"/>
<path fill-rule="evenodd" clip-rule="evenodd" d="M64.8326 24.1173H59.8529L59.1493 23.1971C58.175 23.576 57.3089 23.8466 56.5512 24.0631C55.7934 24.2255 54.9815 24.3338 54.0613 24.3338C51.0302 24.3338 48.6486 23.576 46.9706 22.1145C45.1844 20.599 44.3184 18.2715 44.3184 15.2945C44.3184 12.2634 45.1303 9.93591 46.7 8.36622C48.3238 6.79653 50.7595 5.98462 54.0613 5.98462C57.2548 5.98462 59.6905 6.85066 61.3685 8.5286C62.8299 9.99004 63.5336 11.8845 63.5336 14.1578C63.5336 15.8358 63.4794 17.0807 63.3171 17.8385C63.1006 19.0293 62.5593 20.166 61.8015 21.1944L64.8326 24.1173ZM59.1493 15.1321C59.1493 13.5083 58.8245 12.2093 58.1208 11.1808C57.2548 9.88178 55.8475 9.23226 54.0072 9.23226C52.2751 9.23226 50.9219 9.7194 50.0559 10.7478C49.1899 11.7221 48.7568 13.1835 48.7568 15.078C48.7568 17.189 49.244 18.7587 50.2724 19.7329C51.1926 20.599 52.5457 21.032 54.3319 21.032C55.9558 21.032 57.1466 20.5449 57.9585 19.5706C58.7704 18.5421 59.1493 17.0807 59.1493 15.1321Z" fill="#F95A59"/>
<path fill-rule="evenodd" clip-rule="evenodd" d="M83.6152 18.5421C83.6152 20.1118 83.0739 21.4109 82.0455 22.4934C81.0171 23.576 79.718 24.0631 78.0942 24.0631H65.6449V20.8696H75.9833C76.6869 20.8696 77.2823 20.7072 77.7153 20.3825C78.2566 20.0036 78.5272 19.5164 78.5272 18.8669C78.5272 17.3513 77.4447 16.5936 75.3337 16.5936H70.1375C68.6219 16.5936 67.3229 16.1064 66.1862 15.1863C65.0495 14.2661 64.5083 13.0753 64.5083 11.6139C64.5083 10.0442 65.0495 8.74511 66.1862 7.77082C67.2688 6.79653 68.7302 6.30939 70.5705 6.30939H82.5327V9.34051H71.9237C71.4366 9.34051 70.9494 9.55702 70.5164 9.93591C69.9751 10.3148 69.7586 10.8019 69.7586 11.3432C69.7586 11.9386 69.9751 12.4799 70.4623 12.8588C70.9494 13.2918 71.4907 13.4542 72.1402 13.4542H77.8777C79.6639 13.4542 81.0712 13.9413 82.0996 14.8615C83.1281 15.7817 83.6152 17.0266 83.6152 18.5421Z" fill="#F95A59"/>
<path fill-rule="evenodd" clip-rule="evenodd" d="M104.075 15.1321C104.075 18.5963 103.101 21.032 101.206 22.5476C99.6368 23.7384 97.3635 24.3338 94.4406 24.3338C91.1388 24.3338 88.7031 23.6301 87.1334 22.2769C85.4013 20.7614 84.5353 18.3256 84.5353 14.9698C84.5353 12.2093 85.2931 10.0442 86.8628 8.52861C88.5407 6.85067 91.0306 6.03876 94.3865 6.03876C98.0671 6.03876 100.611 6.85067 102.127 8.42036C103.426 9.82767 104.075 12.0469 104.075 15.1321ZM99.5285 15.0239C99.5285 13.2918 99.0955 11.8845 98.2836 10.8561C97.3635 9.71941 95.9561 9.12401 94.1699 9.12401C92.3837 9.12401 91.0306 9.71941 90.1104 10.9643C89.3526 11.9928 88.9737 13.3459 88.9737 14.9698C88.9737 16.8642 89.2985 18.2715 89.8939 19.1917C90.7599 20.4366 92.2755 21.0861 94.603 21.0861C96.5515 21.0861 97.9047 20.4907 98.6625 19.2458C99.2579 18.3798 99.5285 16.9183 99.5285 15.0239Z" fill="#F95A59"/>
<path fill-rule="evenodd" clip-rule="evenodd" d="M121.883 16.6477H109.65V24.009H105.266V13.1294C105.266 12.4799 105.374 11.7221 105.645 10.9102C106.132 9.44877 107.052 8.36622 108.405 7.60844C109.975 6.74241 112.573 6.30939 116.145 6.30939C123.777 6.30939 131.409 6.30939 139.041 6.30939V9.28639H132.438V24.009H128.324V9.28639C124.102 9.28639 120.097 9.23226 115.875 9.23226C114.251 9.23226 113.114 9.34051 112.465 9.5029C111.328 9.77353 110.57 10.4231 110.083 11.3432C109.704 12.0469 109.542 12.8047 109.542 13.6707H121.883V16.6477Z" fill="#F95A59"/>
</g>
<defs>
<filter id="filter0_d_1642:1539" x="0" y="0" width="143.041" height="38.3184" filterUnits="userSpaceOnUse" color-interpolation-filters="sRGB">
<feFlood flood-opacity="0" result="BackgroundImageFix"/>
<feColorMatrix in="SourceAlpha" type="matrix" values="0 0 0 0 0 0 0 0 0 0 0 0 0 0 0 0 0 0 127 0" result="hardAlpha"/>
<feOffset dy="4"/>
<feGaussianBlur stdDeviation="2"/>
<feComposite in2="hardAlpha" operator="out"/>
<feColorMatrix type="matrix" values="0 0 0 0 0 0 0 0 0 0 0 0 0 0 0 0 0 0 0.25 0"/>
<feBlend mode="normal" in2="BackgroundImageFix" result="effect1_dropShadow_1642:1539"/>
<feBlend mode="normal" in="SourceGraphic" in2="effect1_dropShadow_1642:1539" result="shape"/>
</filter>
<clipPath id="clip0_1642:1539">
<rect width="135.041" height="30.3184" fill="white" transform="translate(4)"/>
</clipPath>
</defs>
</svg>
